<?xml version="1.0" encoding="UTF-8"?>
<!-- Do not edit this file with editors other than draw.io -->
<!DOCTYPE svg PUBLIC "-//W3C//DTD SVG 1.1//EN" "http://www.w3.org/Graphics/SVG/1.1/DTD/svg11.dtd">
<svg xmlns="http://www.w3.org/2000/svg" style="background: transparent; background-color: transparent; color-scheme: light dark;" xmlns:xlink="http://www.w3.org/1999/xlink" version="1.1" width="41px" height="201px" viewBox="0 0 41 201" content="&lt;mxfile host=&quot;app.diagrams.net&quot; agent=&quot;Mozilla/5.0 (Windows NT 10.0; Win64; x64) AppleWebKit/537.36 (KHTML, like Gecko) Chrome/143.0.0.0 Safari/537.36 Edg/143.0.0.0&quot; version=&quot;29.3.0&quot;&gt;&#10;  &lt;diagram name=&quot;Page-1&quot; id=&quot;AsvH5ETue9xhI-cgm1hq&quot;&gt;&#10;    &lt;mxGraphModel dx=&quot;396&quot; dy=&quot;215&quot; grid=&quot;1&quot; gridSize=&quot;10&quot; guides=&quot;1&quot; tooltips=&quot;1&quot; connect=&quot;1&quot; arrows=&quot;1&quot; fold=&quot;1&quot; page=&quot;1&quot; pageScale=&quot;1&quot; pageWidth=&quot;850&quot; pageHeight=&quot;1100&quot; math=&quot;0&quot; shadow=&quot;0&quot;&gt;&#10;      &lt;root&gt;&#10;        &lt;mxCell id=&quot;0&quot; /&gt;&#10;        &lt;mxCell id=&quot;1&quot; parent=&quot;0&quot; /&gt;&#10;        &lt;object label=&quot;&quot; id=&quot;spine_1&quot;&gt;&#10;          &lt;mxCell parent=&quot;1&quot; style=&quot;verticalLabelPosition=bottom;sketch=0;html=1;fillColor=#6ABD46;strokeColor=#ffffff;verticalAlign=top;align=center;points=[[0.085,0.085,0],[0.915,0.085,0],[0.915,0.915,0],[0.085,0.915,0],[0.25,0,0],[0.5,0,0],[0.75,0,0],[1,0.25,0],[1,0.5,0],[1,0.75,0],[0.75,1,0],[0.5,1,0],[0.25,1,0],[0,0.75,0],[0,0.5,0],[0,0.25,0]];pointerEvents=1;shape=mxgraph.cisco_safe.compositeIcon;bgIcon=mxgraph.cisco_safe.architecture.generic_appliance;resIcon=mxgraph.cisco_safe.architecture.switch;&quot; vertex=&quot;1&quot;&gt;&#10;            &lt;mxGeometry height=&quot;40&quot; width=&quot;40&quot; x=&quot;320&quot; y=&quot;600&quot; as=&quot;geometry&quot; /&gt;&#10;          &lt;/mxCell&gt;&#10;        &lt;/object&gt;&#10;        &lt;object label=&quot;&quot; id=&quot;super_spine_1&quot;&gt;&#10;          &lt;mxCell parent=&quot;1&quot; style=&quot;verticalLabelPosition=bottom;sketch=0;html=1;fillColor=#6ABD46;strokeColor=#ffffff;verticalAlign=top;align=center;points=[[0.085,0.085,0],[0.915,0.085,0],[0.915,0.915,0],[0.085,0.915,0],[0.25,0,0],[0.5,0,0],[0.75,0,0],[1,0.25,0],[1,0.5,0],[1,0.75,0],[0.75,1,0],[0.5,1,0],[0.25,1,0],[0,0.75,0],[0,0.5,0],[0,0.25,0]];pointerEvents=1;shape=mxgraph.cisco_safe.compositeIcon;bgIcon=mxgraph.cisco_safe.architecture.generic_appliance;resIcon=mxgraph.cisco_safe.architecture.switch;&quot; vertex=&quot;1&quot;&gt;&#10;            &lt;mxGeometry height=&quot;40&quot; width=&quot;40&quot; x=&quot;320&quot; y=&quot;440&quot; as=&quot;geometry&quot; /&gt;&#10;          &lt;/mxCell&gt;&#10;        &lt;/object&gt;&#10;        &lt;object label=&quot;&quot; id=&quot;to_super_spine_1&quot;&gt;&#10;          &lt;mxCell edge=&quot;1&quot; parent=&quot;1&quot; source=&quot;spine_1&quot; style=&quot;shape=flexArrow;endArrow=classic;html=1;rounded=0;endWidth=4.524973893983726;endSize=6.053376205787781;width=2.6366559485530545;exitX=0.5;exitY=0;exitDx=0;exitDy=0;exitPerimeter=0;&quot;&gt;&#10;            &lt;mxGeometry height=&quot;50&quot; relative=&quot;1&quot; width=&quot;50&quot; as=&quot;geometry&quot;&gt;&#10;              &lt;mxPoint x=&quot;270&quot; y=&quot;600&quot; as=&quot;sourcePoint&quot; /&gt;&#10;              &lt;mxPoint x=&quot;340&quot; y=&quot;540&quot; as=&quot;targetPoint&quot; /&gt;&#10;            &lt;/mxGeometry&gt;&#10;          &lt;/mxCell&gt;&#10;        &lt;/object&gt;&#10;        &lt;object label=&quot;&quot; id=&quot;to_spine_1&quot;&gt;&#10;          &lt;mxCell edge=&quot;1&quot; parent=&quot;1&quot; source=&quot;super_spine_1&quot; style=&quot;shape=flexArrow;endArrow=classic;html=1;rounded=0;endWidth=4.524973893983726;endSize=6.053376205787781;width=2.6366559485530545;exitX=0.5;exitY=1;exitDx=0;exitDy=0;exitPerimeter=0;&quot;&gt;&#10;            &lt;mxGeometry height=&quot;50&quot; relative=&quot;1&quot; width=&quot;50&quot; as=&quot;geometry&quot;&gt;&#10;              &lt;mxPoint x=&quot;370&quot; y=&quot;560&quot; as=&quot;sourcePoint&quot; /&gt;&#10;              &lt;mxPoint x=&quot;340&quot; y=&quot;540&quot; as=&quot;targetPoint&quot; /&gt;&#10;            &lt;/mxGeometry&gt;&#10;          &lt;/mxCell&gt;&#10;        &lt;/object&gt;&#10;      &lt;/root&gt;&#10;    &lt;/mxGraphModel&gt;&#10;  &lt;/diagram&gt;&#10;&lt;/mxfile&gt;&#10;"><defs/><g><g data-cell-id="0"><g data-cell-id="1"><g data-cell-id="spine_1"><g id="cell-spine_1" content="&lt;object label=&quot;&quot;/&gt;" data-label=""><g transform="translate(0.5,0.5)"><path d="M 0 172 C 0 165.37 5.37 160 12 160 L 28 160 C 34.63 160 40 165.37 40 172 L 40 188 C 40 194.63 34.63 200 28 200 L 12 200 C 5.37 200 0 194.63 0 188 Z" fill="#c2e0ae" stroke="none" pointer-events="all" style="fill: light-dark(rgb(194, 224, 174), rgb(37, 62, 19));"/><rect x="10.4" y="170.4" width="19.2" height="19.2" fill="none" stroke="none" pointer-events="all"/><path d="M 14.28 170.4 C 25.76 170.4 25.76 170.4 25.76 170.4 C 27.87 170.4 29.6 172.16 29.6 174.28 C 29.6 185.75 29.6 185.75 29.6 185.75 C 29.6 187.87 27.87 189.6 25.76 189.6 C 14.28 189.6 14.28 189.6 14.28 189.6 C 12.17 189.6 10.4 187.87 10.4 185.75 C 10.4 174.28 10.4 174.28 10.4 174.28 C 10.4 172.16 12.17 170.4 14.28 170.4 Z" fill="#ffffff" stroke="none" pointer-events="all" style="fill: light-dark(rgb(255, 255, 255), rgb(18, 18, 18));"/><ellipse cx="5" cy="180" rx="0.8" ry="0.8" fill-opacity="0.5" fill="#ffffff" stroke="none" pointer-events="all" style="fill: light-dark(rgb(255, 255, 255), rgb(18, 18, 18));"/><ellipse cx="35" cy="180" rx="0.8" ry="0.8" fill-opacity="0.5" fill="#ffffff" stroke="none" pointer-events="all" style="fill: light-dark(rgb(255, 255, 255), rgb(18, 18, 18));"/><ellipse cx="20" cy="165" rx="0.8" ry="0.8" fill-opacity="0.5" fill="#ffffff" stroke="none" pointer-events="all" style="fill: light-dark(rgb(255, 255, 255), rgb(18, 18, 18));"/><ellipse cx="20" cy="195" rx="0.8" ry="0.8" fill-opacity="0.5" fill="#ffffff" stroke="none" pointer-events="all" style="fill: light-dark(rgb(255, 255, 255), rgb(18, 18, 18));"/><ellipse cx="7.6" cy="167.6" rx="0.8" ry="0.8" fill-opacity="0.5" fill="#ffffff" stroke="none" pointer-events="all" style="fill: light-dark(rgb(255, 255, 255), rgb(18, 18, 18));"/><ellipse cx="32.4" cy="167.6" rx="0.8" ry="0.8" fill-opacity="0.5" fill="#ffffff" stroke="none" pointer-events="all" style="fill: light-dark(rgb(255, 255, 255), rgb(18, 18, 18));"/><ellipse cx="32.4" cy="192.4" rx="0.8" ry="0.8" fill-opacity="0.5" fill="#ffffff" stroke="none" pointer-events="all" style="fill: light-dark(rgb(255, 255, 255), rgb(18, 18, 18));"/><ellipse cx="7.6" cy="192.4" rx="0.8" ry="0.8" fill-opacity="0.5" fill="#ffffff" stroke="none" pointer-events="all" style="fill: light-dark(rgb(255, 255, 255), rgb(18, 18, 18));"/><rect x="10" y="170" width="20" height="20" fill="none" stroke="none" pointer-events="all"/><path d="M 15.66 173.53 L 13.23 175.88 L 15.66 178.24 L 15.66 177.06 L 19.71 177.06 L 19.71 174.75 L 15.66 174.75 L 15.66 173.53 Z M 24.41 176.47 L 24.41 177.64 L 20.3 177.64 L 20.3 180 L 24.41 180 L 24.41 181.18 L 26.73 178.9 L 26.77 178.82 L 24.41 176.47 Z M 15.66 178.82 L 13.23 181.17 L 15.66 183.53 L 15.66 182.35 L 19.71 182.35 L 19.71 180 L 15.66 180 L 15.66 178.82 Z M 24.41 181.76 L 24.41 182.94 L 20.3 182.94 L 20.3 185.25 L 24.41 185.25 L 24.41 186.47 L 26.73 184.11 L 26.77 184.11 L 24.41 181.76 Z M 14.04 170 C 26 170 26 170 26 170 C 28.2 170 30 171.84 30 174.04 C 30 185.99 30 185.99 30 185.99 C 30 188.19 28.2 190 26 190 C 14.04 190 14.04 190 14.04 190 C 11.84 190 10 188.19 10 185.99 C 10 174.04 10 174.04 10 174.04 C 10 171.84 11.84 170 14.04 170 Z" fill="#6abd46" stroke="none" pointer-events="all" style="fill: light-dark(rgb(106, 189, 70), rgb(49, 120, 18));"/></g></g></g><g data-cell-id="super_spine_1"><g id="cell-super_spine_1" content="&lt;object label=&quot;&quot;/&gt;" data-label=""><g transform="translate(0.5,0.5)"><path d="M 0 12 C 0 5.37 5.37 0 12 0 L 28 0 C 34.63 0 40 5.37 40 12 L 40 28 C 40 34.63 34.63 40 28 40 L 12 40 C 5.37 40 0 34.63 0 28 Z" fill="#c2e0ae" stroke="none" pointer-events="all" style="fill: light-dark(rgb(194, 224, 174), rgb(37, 62, 19));"/><rect x="10.4" y="10.4" width="19.2" height="19.2" fill="none" stroke="none" pointer-events="all"/><path d="M 14.28 10.4 C 25.76 10.4 25.76 10.4 25.76 10.4 C 27.87 10.4 29.6 12.16 29.6 14.28 C 29.6 25.75 29.6 25.75 29.6 25.75 C 29.6 27.87 27.87 29.6 25.76 29.6 C 14.28 29.6 14.28 29.6 14.28 29.6 C 12.17 29.6 10.4 27.87 10.4 25.75 C 10.4 14.28 10.4 14.28 10.4 14.28 C 10.4 12.16 12.17 10.4 14.28 10.4 Z" fill="#ffffff" stroke="none" pointer-events="all" style="fill: light-dark(rgb(255, 255, 255), rgb(18, 18, 18));"/><ellipse cx="5" cy="20" rx="0.8" ry="0.8" fill-opacity="0.5" fill="#ffffff" stroke="none" pointer-events="all" style="fill: light-dark(rgb(255, 255, 255), rgb(18, 18, 18));"/><ellipse cx="35" cy="20" rx="0.8" ry="0.8" fill-opacity="0.5" fill="#ffffff" stroke="none" pointer-events="all" style="fill: light-dark(rgb(255, 255, 255), rgb(18, 18, 18));"/><ellipse cx="20" cy="5" rx="0.8" ry="0.8" fill-opacity="0.5" fill="#ffffff" stroke="none" pointer-events="all" style="fill: light-dark(rgb(255, 255, 255), rgb(18, 18, 18));"/><ellipse cx="20" cy="35" rx="0.8" ry="0.8" fill-opacity="0.5" fill="#ffffff" stroke="none" pointer-events="all" style="fill: light-dark(rgb(255, 255, 255), rgb(18, 18, 18));"/><ellipse cx="7.6" cy="7.6" rx="0.8" ry="0.8" fill-opacity="0.5" fill="#ffffff" stroke="none" pointer-events="all" style="fill: light-dark(rgb(255, 255, 255), rgb(18, 18, 18));"/><ellipse cx="32.4" cy="7.6" rx="0.8" ry="0.8" fill-opacity="0.5" fill="#ffffff" stroke="none" pointer-events="all" style="fill: light-dark(rgb(255, 255, 255), rgb(18, 18, 18));"/><ellipse cx="32.4" cy="32.4" rx="0.8" ry="0.8" fill-opacity="0.5" fill="#ffffff" stroke="none" pointer-events="all" style="fill: light-dark(rgb(255, 255, 255), rgb(18, 18, 18));"/><ellipse cx="7.6" cy="32.4" rx="0.8" ry="0.8" fill-opacity="0.5" fill="#ffffff" stroke="none" pointer-events="all" style="fill: light-dark(rgb(255, 255, 255), rgb(18, 18, 18));"/><rect x="10" y="10" width="20" height="20" fill="none" stroke="none" pointer-events="all"/><path d="M 15.66 13.53 L 13.23 15.88 L 15.66 18.24 L 15.66 17.05 L 19.71 17.05 L 19.71 14.75 L 15.66 14.75 L 15.66 13.53 Z M 24.41 16.47 L 24.41 17.64 L 20.3 17.64 L 20.3 19.99 L 24.41 19.99 L 24.41 21.18 L 26.73 18.89 L 26.77 18.82 L 24.41 16.47 Z M 15.66 18.82 L 13.23 21.17 L 15.66 23.53 L 15.66 22.35 L 19.71 22.35 L 19.71 19.99 L 15.66 19.99 L 15.66 18.82 Z M 24.41 21.76 L 24.41 22.94 L 20.3 22.94 L 20.3 25.26 L 24.41 25.26 L 24.41 26.47 L 26.73 24.11 L 26.77 24.11 L 24.41 21.76 Z M 14.04 10 C 26 10 26 10 26 10 C 28.2 10 30 11.84 30 14.04 C 30 25.99 30 25.99 30 25.99 C 30 28.2 28.2 30 26 30 C 14.04 30 14.04 30 14.04 30 C 11.84 30 10 28.2 10 25.99 C 10 14.04 10 14.04 10 14.04 C 10 11.84 11.84 10 14.04 10 Z" fill="#6abd46" stroke="none" pointer-events="all" style="fill: light-dark(rgb(106, 189, 70), rgb(49, 120, 18));"/></g></g></g><g data-cell-id="to_super_spine_1"><g id="cell-to_super_spine_1" content="&lt;object label=&quot;&quot;/&gt;" data-label=""><g transform="translate(0.5,0.5)"><path d="M 21.32 159.5 L 18.68 159.5 L 18.68 119.66 L 15.92 119.66 L 20 100.5 L 24.08 119.66 L 21.32 119.66 Z" fill="none" stroke="#000000" stroke-miterlimit="10" pointer-events="all" style="stroke: light-dark(rgb(0, 0, 0), rgb(255, 255, 255));"/></g></g></g><g data-cell-id="to_spine_1"><g id="cell-to_spine_1" content="&lt;object label=&quot;&quot;/&gt;" data-label=""><g transform="translate(0.5,0.5)"><path d="M 18.68 40.5 L 21.32 40.5 L 21.32 80.34 L 24.08 80.34 L 20 99.5 L 15.92 80.34 L 18.68 80.34 Z" fill="none" stroke="#000000" stroke-miterlimit="10" pointer-events="all" style="stroke: light-dark(rgb(0, 0, 0), rgb(255, 255, 255));"/></g></g></g></g></g></g></svg>