<svg xmlns="http://www.w3.org/2000/svg" xmlns:xlink="http://www.w3.org/1999/xlink" xmlns:lucid="lucid" width="4001.67" height="837.67"><g transform="translate(321 -319.3333333333333)" lucid:page-tab-id="0_0"><path d="M320 320h160v160H320z" fill-opacity="0"/><path d="M320 320h160v160H320V320z" stroke="#000" stroke-opacity="0" stroke-width="1.33" fill="#1192e8"/><path d="M400 425.06v-5h-25.44l6.45-6.46-3.53-3.52-12.5 12.48 12.5 12.48 3.54-3.52-6.44-6.46H400zM400 394.98v-5h-25.44l6.45-6.46-3.53-3.52-12.5 12.48 12.5 12.48 3.54-3.52-6.44-6.46H400zM400 374.94v5h25.44L419 386.4l3.53 3.52 12.5-12.48-12.5-12.48-3.54 3.52 6.44 6.46H400zM400 405.02v5h25.44l-6.45 6.46 3.53 3.52 12.5-12.48-12.5-12.48-3.54 3.52 6.44 6.46H400z" stroke="#000" stroke-opacity="0" stroke-width="1.33" fill="#fff"/><path d="M360 360h80v80h-80v-80z" stroke="#000" stroke-opacity="0" stroke-width="1.33" fill-opacity="0"/><path d="M2880 320h160v160h-160z" fill-opacity="0"/><path d="M2880 320h160v160h-160V320z" stroke="#000" stroke-opacity="0" stroke-width="1.33" fill="#1192e8"/><path d="M2960 425.06v-5h-25.44l6.45-6.46-3.53-3.52-12.5 12.48 12.5 12.48 3.54-3.52-6.44-6.46H2960zM2960 394.98v-5h-25.44l6.45-6.46-3.53-3.52-12.5 12.48 12.5 12.48 3.54-3.52-6.44-6.46H2960zM2960 374.94v5h25.44l-6.45 6.46 3.53 3.52 12.5-12.48-12.5-12.48-3.54 3.52 6.44 6.46H2960zM2960 405.02v5h25.44l-6.45 6.46 3.53 3.52 12.5-12.48-12.5-12.48-3.54 3.52 6.44 6.46H2960z" stroke="#000" stroke-opacity="0" stroke-width="1.33" fill="#fff"/><path d="M2920 360h80v80h-80v-80z" stroke="#000" stroke-opacity="0" stroke-width="1.33" fill-opacity="0"/><path d="M-320 960h160v160h-160z" fill-opacity="0"/><path d="M-320 960h160v160h-160V960z" stroke="#000" stroke-opacity="0" stroke-width="1.33" fill="#1192e8"/><path d="M-240 1065.06v-5h-25.44l6.45-6.46-3.53-3.52-12.5 12.48 12.5 12.48 3.54-3.52-6.44-6.46H-240zM-240 1034.98v-5h-25.44l6.45-6.46-3.53-3.52-12.5 12.48 12.5 12.48 3.54-3.52-6.44-6.46H-240zM-240 1014.94v5h25.44l-6.45 6.46 3.53 3.52 12.5-12.48-12.5-12.48-3.54 3.52 6.44 6.46H-240zM-240 1045.02v5h25.44l-6.45 6.46 3.53 3.52 12.5-12.48-12.5-12.48-3.54 3.52 6.44 6.46H-240z" stroke="#000" stroke-opacity="0" stroke-width="1.33" fill="#fff"/><path d="M-280 1000h80v80h-80v-80z" stroke="#000" stroke-opacity="0" stroke-width="1.33" fill-opacity="0"/><use xlink:href="#a" transform="matrix(1,0,0,1,-350,1129) translate(70.70421006944444 21.52777777777778)"/><path d="M960 960h160v160H960z" fill-opacity="0"/><path d="M960 960h160v160H960V960z" stroke="#000" stroke-opacity="0" stroke-width="1.33" fill="#1192e8"/><path d="M1040 1065.06v-5h-25.44l6.45-6.46-3.53-3.52-12.5 12.48 12.5 12.48 3.54-3.52-6.44-6.46H1040zM1040 1034.98v-5h-25.44l6.45-6.46-3.53-3.52-12.5 12.48 12.5 12.48 3.54-3.52-6.44-6.46H1040zM1040 1014.94v5h25.44l-6.45 6.46 3.53 3.52 12.5-12.48-12.5-12.48-3.54 3.52 6.44 6.46H1040zM1040 1045.02v5h25.44l-6.45 6.46 3.53 3.52 12.5-12.48-12.5-12.48-3.54 3.52 6.44 6.46H1040z" stroke="#000" stroke-opacity="0" stroke-width="1.33" fill="#fff"/><path d="M1000 1000h80v80h-80v-80z" stroke="#000" stroke-opacity="0" stroke-width="1.33" fill-opacity="0"/><use xlink:href="#b" transform="matrix(1,0,0,1,930,1129) translate(68.82161458333333 21.52777777777778)"/><path d="M2240 960h160v160h-160z" fill-opacity="0"/><path d="M2240 960h160v160h-160V960z" stroke="#000" stroke-opacity="0" stroke-width="1.33" fill="#1192e8"/><path d="M2320 1065.06v-5h-25.44l6.45-6.46-3.53-3.52-12.5 12.48 12.5 12.48 3.54-3.52-6.44-6.46H2320zM2320 1034.98v-5h-25.44l6.45-6.46-3.53-3.52-12.5 12.48 12.5 12.48 3.54-3.52-6.44-6.46H2320zM2320 1014.94v5h25.44l-6.45 6.46 3.53 3.52 12.5-12.48-12.5-12.48-3.54 3.52 6.44 6.46H2320zM2320 1045.02v5h25.44l-6.45 6.46 3.53 3.52 12.5-12.48-12.5-12.48-3.54 3.52 6.44 6.46H2320z" stroke="#000" stroke-opacity="0" stroke-width="1.33" fill="#fff"/><path d="M2280 1000h80v80h-80v-80z" stroke="#000" stroke-opacity="0" stroke-width="1.33" fill-opacity="0"/><use xlink:href="#c" transform="matrix(1,0,0,1,2210,1129) translate(68.48524305555556 21.52777777777778)"/><path d="M3520 960h160v160h-160z" fill-opacity="0"/><path d="M3520 960h160v160h-160V960z" stroke="#000" stroke-opacity="0" stroke-width="1.33" fill="#1192e8"/><path d="M3600 1065.06v-5h-25.44l6.45-6.46-3.53-3.52-12.5 12.48 12.5 12.48 3.54-3.52-6.44-6.46H3600zM3600 1034.98v-5h-25.44l6.45-6.46-3.53-3.52-12.5 12.48 12.5 12.48 3.54-3.52-6.44-6.46H3600zM3600 1014.94v5h25.44l-6.45 6.46 3.53 3.52 12.5-12.48-12.5-12.48-3.54 3.52 6.44 6.46H3600zM3600 1045.02v5h25.44l-6.45 6.46 3.53 3.52 12.5-12.48-12.5-12.48-3.54 3.52 6.44 6.46H3600z" stroke="#000" stroke-opacity="0" stroke-width="1.33" fill="#fff"/><path d="M3560 1000h80v80h-80v-80z" stroke="#000" stroke-opacity="0" stroke-width="1.33" fill-opacity="0"/><use xlink:href="#d" transform="matrix(1,0,0,1,3490,1129) translate(68.04578993055556 21.52777777777778)"/><path d="M320 486a6 6 0 0 1 6-6h8a6 6 0 0 1 6 6v28a6 6 0 0 1-6 6h-8a6 6 0 0 1-6-6z" stroke="#000" stroke-width="2" fill="#fff"/><use xlink:href="#e" transform="matrix(1,0,0,1,325,485) translate(2.288411458333333 20.416666666666668)"/><path d="M360 486a6 6 0 0 1 6-6h8a6 6 0 0 1 6 6v28a6 6 0 0 1-6 6h-8a6 6 0 0 1-6-6z" stroke="#000" stroke-width="2" fill="#fff"/><use xlink:href="#f" transform="matrix(1,0,0,1,365,485) translate(0.9342447916666661 20.416666666666668)"/><path d="M460 486a6 6 0 0 1 6-6h8a6 6 0 0 1 6 6v28a6 6 0 0 1-6 6h-8a6 6 0 0 1-6-6z" stroke="#000" stroke-width="2" fill="#fff"/><use xlink:href="#g" transform="matrix(1,0,0,1,465,485) translate(0.693359375 20.416666666666668)"/><path d="M420 486a6 6 0 0 1 6-6h8a6 6 0 0 1 6 6v28a6 6 0 0 1-6 6h-8a6 6 0 0 1-6-6z" stroke="#000" stroke-width="2" fill="#fff"/><use xlink:href="#h" transform="matrix(1,0,0,1,425,485) translate(0.882161458333333 20.416666666666668)"/><path d="M330 526v188a6 6 0 0 1-6 6H115.45" stroke="#3a414a" stroke-width="10" fill="none"/><path d="M334.98 526.13h-9.96v-5.2l.94.07h8.08l.94-.07z" stroke="#3a414a" stroke-width=".05" fill="#3a414a"/><path d="M96.18 720l14.27-4.63v9.26z" stroke="#3a414a" stroke-width="10" fill="#3a414a"/><path d="M-320 926a6 6 0 0 1 6-6h8a6 6 0 0 1 6 6v28a6 6 0 0 1-6 6h-8a6 6 0 0 1-6-6z" stroke="#000" stroke-width="2" fill="#fff"/><use xlink:href="#e" transform="matrix(1,0,0,1,-315,925) translate(2.288411458333333 20.416666666666668)"/><path d="M-280 926a6 6 0 0 1 6-6h8a6 6 0 0 1 6 6v28a6 6 0 0 1-6 6h-8a6 6 0 0 1-6-6z" stroke="#000" stroke-width="2" fill="#fff"/><use xlink:href="#f" transform="matrix(1,0,0,1,-275,925) translate(0.9342447916666661 20.416666666666668)"/><path d="M-310 914V726a6 6 0 0 1 6-6H44.55" stroke="#3a414a" stroke-width="10" fill="none"/><path d="M-305.02 919.07l-.94-.07h-8.08l-.94.07v-5.2h9.96z" stroke="#3a414a" stroke-width=".05" fill="#3a414a"/><path d="M63.82 720l-14.27 4.63v-9.26z" stroke="#3a414a" stroke-width="10" fill="#3a414a"/><path d="M960 926a6 6 0 0 1 6-6h8a6 6 0 0 1 6 6v28a6 6 0 0 1-6 6h-8a6 6 0 0 1-6-6z" stroke="#000" stroke-width="2" fill="#fff"/><use xlink:href="#e" transform="matrix(1,0,0,1,965,925) translate(2.288411458333333 20.416666666666668)"/><path d="M1000 926a6 6 0 0 1 6-6h8a6 6 0 0 1 6 6v28a6 6 0 0 1-6 6h-8a6 6 0 0 1-6-6z" stroke="#000" stroke-width="2" fill="#fff"/><use xlink:href="#f" transform="matrix(1,0,0,1,1005,925) translate(0.9342447916666661 20.416666666666668)"/><path d="M2240 926a6 6 0 0 1 6-6h8a6 6 0 0 1 6 6v28a6 6 0 0 1-6 6h-8a6 6 0 0 1-6-6z" stroke="#000" stroke-width="2" fill="#fff"/><use xlink:href="#e" transform="matrix(1,0,0,1,2245,925) translate(2.288411458333333 20.416666666666668)"/><path d="M2280 926a6 6 0 0 1 6-6h8a6 6 0 0 1 6 6v28a6 6 0 0 1-6 6h-8a6 6 0 0 1-6-6z" stroke="#000" stroke-width="2" fill="#fff"/><use xlink:href="#f" transform="matrix(1,0,0,1,2285,925) translate(0.9342447916666661 20.416666666666668)"/><path d="M3520 926a6 6 0 0 1 6-6h8a6 6 0 0 1 6 6v28a6 6 0 0 1-6 6h-8a6 6 0 0 1-6-6z" stroke="#000" stroke-width="2" fill="#fff"/><use xlink:href="#e" transform="matrix(1,0,0,1,3525,925) translate(2.288411458333333 20.416666666666668)"/><path d="M3560 926a6 6 0 0 1 6-6h8a6 6 0 0 1 6 6v28a6 6 0 0 1-6 6h-8a6 6 0 0 1-6-6z" stroke="#000" stroke-width="2" fill="#fff"/><use xlink:href="#f" transform="matrix(1,0,0,1,3565,925) translate(0.9342447916666661 20.416666666666668)"/><path d="M370 526v268a6 6 0 0 0 6 6h308.55" stroke="#3a414a" stroke-width="10" fill="none"/><path d="M374.98 526.13h-9.96v-5.2l.94.07h8.08l.94-.07z" stroke="#3a414a" stroke-width=".05" fill="#3a414a"/><path d="M703.82 800l-14.27 4.63v-9.26z" stroke="#3a414a" stroke-width="10" fill="#3a414a"/><path d="M970 914V806a6 6 0 0 0-6-6H755.45" stroke="#3a414a" stroke-width="10" fill="none"/><path d="M974.98 919.07l-.94-.07h-8.08l-.94.07v-5.2H975z" stroke="#3a414a" stroke-width=".05" fill="#3a414a"/><path d="M736.18 800l14.27-4.63v9.26z" stroke="#3a414a" stroke-width="10" fill="#3a414a"/><path d="M430 526v188a6 6 0 0 0 6 6h888.55" stroke="#3a414a" stroke-width="10" fill="none"/><path d="M434.98 526.13h-9.96v-5.2l.94.07h8.08l.94-.07z" stroke="#3a414a" stroke-width=".05" fill="#3a414a"/><path d="M1343.82 720l-14.27 4.63v-9.26z" stroke="#3a414a" stroke-width="10" fill="#3a414a"/><path d="M2250 914V726a6 6 0 0 0-6-6h-848.55" stroke="#3a414a" stroke-width="10" fill="none"/><path d="M2254.97 919.07l-.93-.07h-8.08l-.93.07v-5.2h9.94z" stroke="#3a414a" stroke-width=".05" fill="#3a414a"/><path d="M1376.18 720l14.27-4.63v9.26z" stroke="#3a414a" stroke-width="10" fill="#3a414a"/><path d="M470 526v108a6 6 0 0 0 6 6h2028.55" stroke="#3a414a" stroke-width="10" fill="none"/><path d="M474.98 526.13h-9.96v-5.2l.94.07h8.08l.94-.07z" stroke="#3a414a" stroke-width=".05" fill="#3a414a"/><path d="M2523.82 640l-14.27 4.63v-9.26z" stroke="#3a414a" stroke-width="10" fill="#3a414a"/><path d="M3530 914V646a6 6 0 0 0-6-6h-948.55" stroke="#3a414a" stroke-width="10" fill="none"/><path d="M3534.97 919.07l-.93-.07h-8.08l-.93.07v-5.2h9.94z" stroke="#3a414a" stroke-width=".05" fill="#3a414a"/><path d="M2556.18 640l14.27-4.63v9.26z" stroke="#3a414a" stroke-width="10" fill="#3a414a"/><path d="M2880 486a6 6 0 0 1 6-6h8a6 6 0 0 1 6 6v28a6 6 0 0 1-6 6h-8a6 6 0 0 1-6-6z" stroke="#000" stroke-width="2" fill="#fff"/><use xlink:href="#e" transform="matrix(1,0,0,1,2885,485) translate(2.288411458333333 20.416666666666668)"/><path d="M2920 486a6 6 0 0 1 6-6h8a6 6 0 0 1 6 6v28a6 6 0 0 1-6 6h-8a6 6 0 0 1-6-6z" stroke="#000" stroke-width="2" fill="#fff"/><use xlink:href="#f" transform="matrix(1,0,0,1,2925,485) translate(0.9342447916666661 20.416666666666668)"/><path d="M3020 486a6 6 0 0 1 6-6h8a6 6 0 0 1 6 6v28a6 6 0 0 1-6 6h-8a6 6 0 0 1-6-6z" stroke="#000" stroke-width="2" fill="#fff"/><use xlink:href="#g" transform="matrix(1,0,0,1,3025,485) translate(0.693359375 20.416666666666668)"/><path d="M2980 486a6 6 0 0 1 6-6h8a6 6 0 0 1 6 6v28a6 6 0 0 1-6 6h-8a6 6 0 0 1-6-6z" stroke="#000" stroke-width="2" fill="#fff"/><use xlink:href="#h" transform="matrix(1,0,0,1,2985,485) translate(0.882161458333333 20.416666666666668)"/><path d="M2890 526v28a6 6 0 0 1-6 6H1155.45" stroke="#3a414a" stroke-width="10" fill="none"/><path d="M2894.97 526.13h-9.94v-5.2l.93.07h8.08l.93-.07z" stroke="#3a414a" stroke-width=".05" fill="#3a414a"/><path d="M1136.18 560l14.27-4.63v9.26z" stroke="#3a414a" stroke-width="10" fill="#3a414a"/><path d="M2930 526v268a6 6 0 0 1-6 6H1715.45" stroke="#3a414a" stroke-width="10" fill="none"/><path d="M2925.96 521h8.08l.93-.07v5.2h-9.94v-5.2z" stroke="#3a414a" stroke-width=".05" fill="#3a414a"/><path d="M1696.18 800l14.27-4.63v9.26z" stroke="#3a414a" stroke-width="10" fill="#3a414a"/><path d="M2990 526v348a6 6 0 0 1-6 6h-148.55" stroke="#3a414a" stroke-width="10" fill="none"/><path d="M2994.97 526.13h-9.94v-5.2l.93.07h8.08l.93-.07z" stroke="#3a414a" stroke-width=".05" fill="#3a414a"/><path d="M2816.18 880l14.27-4.63v9.26z" stroke="#3a414a" stroke-width="10" fill="#3a414a"/><path d="M3030 526v28a6 6 0 0 0 6 6h208.55" stroke="#3a414a" stroke-width="10" fill="none"/><path d="M3034.97 526.13h-9.94v-5.2l.93.07h8.08l.93-.07z" stroke="#3a414a" stroke-width=".05" fill="#3a414a"/><path d="M3263.82 560l-14.27 4.63v-9.26z" stroke="#3a414a" stroke-width="10" fill="#3a414a"/><path d="M-270 914v-38a6 6 0 0 1 6-6h838a6 6 0 0 0 6-6V566a6 6 0 0 1 6-6h498.55" stroke="#3a414a" stroke-width="10" fill="none"/><path d="M-265.02 919.07l-.94-.07h-8.08l-.94.07v-5.2h9.96z" stroke="#3a414a" stroke-width=".05" fill="#3a414a"/><path d="M1103.82 560l-14.27 4.63v-9.26z" stroke="#3a414a" stroke-width="10" fill="#3a414a"/><path d="M3570 914V566a6 6 0 0 0-6-6h-248.55" stroke="#3a414a" stroke-width="10" fill="none"/><path d="M3574.97 919.07l-.93-.07h-8.08l-.93.07v-5.2h9.94z" stroke="#3a414a" stroke-width=".05" fill="#3a414a"/><path d="M3296.18 560l14.27-4.63v9.26z" stroke="#3a414a" stroke-width="10" fill="#3a414a"/><path d="M2290 914v-28a6 6 0 0 1 6-6h468.55" stroke="#3a414a" stroke-width="10" fill="none"/><path d="M2294.97 919.07l-.93-.07h-8.08l-.93.07v-5.2h9.94z" stroke="#3a414a" stroke-width=".05" fill="#3a414a"/><path d="M2783.82 880l-14.27 4.63v-9.26z" stroke="#3a414a" stroke-width="10" fill="#3a414a"/><path d="M1010 914V806a6 6 0 0 1 6-6h628.55" stroke="#3a414a" stroke-width="10" fill="none"/><path d="M1014.98 919.07l-.94-.07h-8.08l-.94.07v-5.2h9.96z" stroke="#3a414a" stroke-width=".05" fill="#3a414a"/><path d="M1663.82 800l-14.27 4.63v-9.26z" stroke="#3a414a" stroke-width="10" fill="#3a414a"/><defs><path d="M657 26c-323 0-524-166-541-416h195c15 169 171 246 346 246 202 0 356-106 356-265 5-203-294-238-475-293-239-73-380-191-380-389 0-252 224-419 512-419 294 0 499 171 508 396H992c-17-145-151-228-328-228-193 0-321 102-321 242 0 156 175 211 284 241l149 41c160 44 422 134 422 412 0 244-197 432-541 432" id="i"/><path d="M158 418v-1536h174v179h20c37-59 106-193 324-193 279 0 474 222 474 576 0 356-194 580-473 580-213 0-288-135-325-197h-14v591H158zm492-555c209 0 317-186 317-421 0-232-105-413-317-413-206 0-314 166-314 413 0 249 111 421 314 421" id="j"/><path d="M158 0v-1118h180V0H158zm91-1301c-68 0-125-53-125-119s57-119 125-119c69 0 126 53 126 119s-57 119-126 119" id="k"/><path d="M338-670V0H158v-1118h173l1 207c72-158 192-221 342-221 226 0 378 139 378 422V0H872v-695c0-172-96-275-252-275-161 0-282 109-282 300" id="l"/><path d="M628 24c-324 0-524-230-524-574 0-343 198-582 503-582 237 0 487 146 487 559v75H286c9 234 145 362 343 362 132 0 231-58 273-172l174 48C1024-91 857 24 628 24zM287-650h624c-17-190-120-322-304-322-192 0-309 151-320 322" id="m"/><path d="M798-719v166H144v-166h654" id="n"/><path d="M653-1490V0H466v-1314h-10L96-1047v-204l324-239h233" id="o"/><g id="a"><use transform="matrix(0.010850694444444444,0,0,0.010850694444444444,0,0)" xlink:href="#i"/><use transform="matrix(0.010850694444444444,0,0,0.010850694444444444,14.2578125,0)" xlink:href="#j"/><use transform="matrix(0.010850694444444444,0,0,0.010850694444444444,27.864583333333332,0)" xlink:href="#k"/><use transform="matrix(0.010850694444444444,0,0,0.010850694444444444,33.24652777777778,0)" xlink:href="#l"/><use transform="matrix(0.010850694444444444,0,0,0.010850694444444444,46.37586805555556,0)" xlink:href="#m"/><use transform="matrix(0.010850694444444444,0,0,0.010850694444444444,59.33159722222222,0)" xlink:href="#n"/><use transform="matrix(0.010850694444444444,0,0,0.010850694444444444,69.55295138888889,0)" xlink:href="#o"/></g><path d="M154 0v-137l495-537c165-179 249-281 249-418 0-156-121-253-280-253-170 0-278 110-278 278H158c0-264 200-443 465-443 266 0 455 183 455 416 0 161-73 288-336 568L416-179v12h687V0H154" id="p"/><g id="b"><use transform="matrix(0.010850694444444444,0,0,0.010850694444444444,0,0)" xlink:href="#i"/><use transform="matrix(0.010850694444444444,0,0,0.010850694444444444,14.2578125,0)" xlink:href="#j"/><use transform="matrix(0.010850694444444444,0,0,0.010850694444444444,27.864583333333332,0)" xlink:href="#k"/><use transform="matrix(0.010850694444444444,0,0,0.010850694444444444,33.24652777777778,0)" xlink:href="#l"/><use transform="matrix(0.010850694444444444,0,0,0.010850694444444444,46.37586805555556,0)" xlink:href="#m"/><use transform="matrix(0.010850694444444444,0,0,0.010850694444444444,59.33159722222222,0)" xlink:href="#n"/><use transform="matrix(0.010850694444444444,0,0,0.010850694444444444,68.80425347222223,0)" xlink:href="#p"/></g><path d="M635 20c-292 0-500-160-510-396h192c11 142 145 229 315 229 187 0 323-105 323-260 0-161-125-274-346-274H488v-165h121c174 0 294-100 294-254 0-148-104-245-266-245-152 0-291 85-297 230H157c8-234 222-395 484-395 278 0 448 188 448 400 0 168-95 291-247 336v12c190 31 301 169 301 357 0 244-216 425-508 425" id="q"/><g id="c"><use transform="matrix(0.010850694444444444,0,0,0.010850694444444444,0,0)" xlink:href="#i"/><use transform="matrix(0.010850694444444444,0,0,0.010850694444444444,14.2578125,0)" xlink:href="#j"/><use transform="matrix(0.010850694444444444,0,0,0.010850694444444444,27.864583333333332,0)" xlink:href="#k"/><use transform="matrix(0.010850694444444444,0,0,0.010850694444444444,33.24652777777778,0)" xlink:href="#l"/><use transform="matrix(0.010850694444444444,0,0,0.010850694444444444,46.37586805555556,0)" xlink:href="#m"/><use transform="matrix(0.010850694444444444,0,0,0.010850694444444444,59.33159722222222,0)" xlink:href="#n"/><use transform="matrix(0.010850694444444444,0,0,0.010850694444444444,69.30338541666667,0)" xlink:href="#q"/></g><path d="M120-303v-155l652-1032h231v1020h202v167h-202V0H821v-303H120zm702-167v-782h-12L323-482v12h499" id="r"/><g id="d"><use transform="matrix(0.010850694444444444,0,0,0.010850694444444444,0,0)" xlink:href="#i"/><use transform="matrix(0.010850694444444444,0,0,0.010850694444444444,14.2578125,0)" xlink:href="#j"/><use transform="matrix(0.010850694444444444,0,0,0.010850694444444444,27.864583333333332,0)" xlink:href="#k"/><use transform="matrix(0.010850694444444444,0,0,0.010850694444444444,33.24652777777778,0)" xlink:href="#l"/><use transform="matrix(0.010850694444444444,0,0,0.010850694444444444,46.37586805555556,0)" xlink:href="#m"/><use transform="matrix(0.010850694444444444,0,0,0.010850694444444444,59.33159722222222,0)" xlink:href="#n"/><use transform="matrix(0.010850694444444444,0,0,0.010850694444444444,69.55295138888889,0)" xlink:href="#r"/></g><use transform="matrix(0.006510416666666667,0,0,0.006510416666666667,0,0)" xlink:href="#o" id="e"/><use transform="matrix(0.006510416666666667,0,0,0.006510416666666667,0,0)" xlink:href="#p" id="f"/><use transform="matrix(0.006510416666666667,0,0,0.006510416666666667,0,0)" xlink:href="#r" id="g"/><use transform="matrix(0.006510416666666667,0,0,0.006510416666666667,0,0)" xlink:href="#q" id="h"/></defs></g></svg>